<?xml version="1.0" encoding="utf-8"?>
<!-- Generator: Adobe Illustrator 18.0.0, SVG Export Plug-In . SVG Version: 6.00 Build 0)  -->
<svg version="1.2" baseProfile="tiny" id="Layer_1" xmlns="http://www.w3.org/2000/svg" xmlns:xlink="http://www.w3.org/1999/xlink"
	 x="0px" y="0px" viewBox="0 0 230 76" xml:space="preserve">
<g>
	<g>
		<path fill="#057DC2" d="M103,37.7c-1.3-2.1-0.2-4.7,1-6.4C103.6,33.3,104.1,35.9,103,37.7"/>
		<path fill="#057DC2" d="M103.5,42.8c-1.2-2-3.4-3.9-2.3-6.5l0.4-0.7c-0.1,0.7-0.1,1.8,0.1,2.4c0.7,1,1,2.1,1.3,3.3
			c0.1-1.4,0.7-2.7,1.2-4l0.3-1.8C106.1,38.2,103.6,40.3,103.5,42.8"/>
		<path fill="#057DC2" d="M105.6,44.2c-0.6,1.2-0.4,3,0.1,4.1c-1.7-1.3-4-2.5-4.7-4.7c-0.3-1-0.6-2.3-0.6-3.4c0.4,1,1,2.1,1.8,3
			c1,0.9,1.6,2.1,2.3,3.2c-0.1-1-0.4-2.1-0.1-3.1c0.3-1.1,0.6-2.3,0.8-3.4C105.6,41.3,106,42.7,105.6,44.2"/>
		<path fill="#057DC2" d="M108.6,50.2c0.3,1.2,0.9,2.2,1.6,3.2c-1.6-1-3.5-1-4.9-2.1c-1.3-1.2-2.2-2.7-3.1-4.1c1,0.9,2,1.9,3.1,2.3
			c1.2,0.6,2.3,1.6,3.2,2.5c-0.7-1-1.3-2.1-1.6-3.2l-0.2-3.5C107.5,46.6,108.5,48.2,108.6,50.2"/>
		<path fill="#057DC2" d="M142,51h-0.2c-0.1-0.5-0.3-1.2-1-1.4c-0.8-0.2-1.7-0.1-2.5-0.1c-0.2,0.8-0.1,1.8-0.1,2.6l3,0.5l-1,1
			c-0.6-0.4-1.3-0.4-2-0.7c0,1.2-0.1,2.5,0.1,3.7c0.2,0.3,0.8,0.2,1.2,0.2c0.1,0.1,0,0.1,0,0.2h-3.8c-0.1-0.4,0.6-0.2,0.9-0.4
			c0.4-0.3,0.2-1,0.3-1.6v-2.4c-2.4-0.2-5.2-0.2-6.5,2.1c-1.1,2.2-2,5.2-4.8,6c-1,0.3-2.1,0.3-3.2,0.1c1.6-0.4,3.3-1.1,4.3-2.7
			c1.2-2.4,3.4-5,6.1-5.8c1.2-0.4,2.5-0.7,4-0.5c0.1-0.8,0.1-1.7-0.1-2.3c-0.2-0.2-0.7-0.2-1-0.2v-0.2h6.2L142,51z"/>
		<path fill="#057DC2" d="M112.7,52.9c0.6,1.3,2,2.4,3.1,3.4c-2.7-0.2-5.6,0.2-7.8-1.3c-0.9-0.5-1.8-1.4-2.4-2.3
			c2.3,1.6,5.4,1.3,7.8,2.7c-2.1-1.3-3.1-3.7-3.7-5.9C110.8,50.5,112,51.7,112.7,52.9"/>
		<path fill="#057DC2" d="M119.4,56.3c0.6,0.4,1.2,0.9,2,0.8c-1.6,0.4-2.7,1.8-4.4,1.8c-2,0.4-4-0.1-5.4-1.3c1,0.3,2.1,0.3,3.2,0.2
			c1.2-0.5,2.6-0.7,4.1-0.7l0.8,0.1c-1.4-0.5-3-1.1-4-2.4c-0.4-0.9-1.2-1.7-2-2.3C116,52.9,117.7,54.6,119.4,56.3"/>
		<path fill="#057DC2" d="M125.5,55.9c0.7-0.1,1.2-0.1,1.9-0.3c-2.1,1.3-3.4,4.1-5.9,4.7c-1.4,0.4-3.1,0.1-4.5-0.2
			c2.4,0,4.5-1.3,6.5-2.7l1.8-0.9c-1.2,0.1-2.7,0.3-3.8-0.3c-0.7-0.5-1.2-1.3-2-1.6C121.8,54.5,123.3,56.1,125.5,55.9"/>
		<path fill="#057DC2" d="M116.4,41.8c0,2.3-0.9,3.5-3.3,3.5c-2.3,0-3.4-0.8-3.4-3.1v-3c0-0.4,0-1.3-0.1-1.7
			c-0.2-0.4-0.7-0.4-1.1-0.4v-0.2c0.6,0,1.2,0.1,1.8,0.1c0.7,0,1.3-0.1,2-0.1v0.2c-0.4,0-0.9,0-1.1,0.4c-0.1,0.3-0.1,1.3-0.1,1.7
			v3.1c0,1.6,0.7,2.5,2.3,2.5c1.8,0,2.6-0.9,2.6-2.6v-2.8c0-0.4,0-1.4-0.1-1.8c-0.2-0.5-0.7-0.6-1.2-0.6v-0.2c0.5,0,1,0.1,1.5,0.1
			c0.4,0,0.9-0.1,1.4-0.1v0.2c-0.4,0-0.9,0-1,0.4c-0.2,0.4-0.2,1.4-0.2,2v2.3h0V41.8z"/>
		<path fill="#057DC2" d="M120.2,37.9c-0.4-0.6-0.7-0.7-1.3-0.8v-0.2c0.4,0,0.8,0.1,1.2,0.1c0.3,0,0.7-0.1,1-0.1l5.3,6.5l0,0v-3.5
			c0-0.5,0-1.4-0.1-2c-0.1-0.7-0.5-0.7-1.1-0.8v-0.2c0.4,0,0.9,0.1,1.3,0.1s0.9-0.1,1.3-0.1v0.2c-0.4,0.1-0.8,0-1,0.6
			c-0.1,0.4-0.1,1.7-0.1,2.2v5.4h-0.4c-0.2-0.3-0.5-0.7-0.9-1l-4.9-6l0,0v4.2c0,0.4,0,1.4,0.2,1.8c0.2,0.5,0.7,0.4,1.1,0.5v0.2
			c-0.4,0-1-0.1-1.4-0.1s-0.9,0.1-1.4,0.1v-0.2c0.5-0.1,1-0.1,1.1-0.7c0.1-0.4,0.1-1.2,0.1-1.8V37.9z"/>
		<path fill="#057DC2" d="M130.8,39.2c0-0.4,0-1.3-0.1-1.7c-0.2-0.4-0.7-0.4-1.1-0.4v-0.2c0.6,0,1.2,0.1,1.8,0.1
			c0.7,0,1.3-0.1,1.9-0.1v0.2c-0.4,0-0.9,0-1.1,0.4c-0.1,0.3-0.1,1.3-0.1,1.7v3.5c0,0.4,0,1.3,0.1,1.7c0.2,0.4,0.7,0.4,1.1,0.4v0.2
			c-0.6,0-1.2,0-1.8,0s-1.3,0.1-1.9,0.1v-0.2c0.4,0,0.9,0,1.1-0.4c0.1-0.3,0.1-1.3,0.1-1.7V39.2z"/>
		<path fill="#057DC2" d="M142.6,38.7h-0.3c-0.1-1.2-0.6-1.6-1.8-1.6c-0.4,0-1.2-0.1-1.2,0.3v6c0,0.9,0.2,1.3,1.4,1.3V45
			c-0.7,0-1.4-0.1-2.1-0.1c-0.7,0.1-1.3,0.1-2,0.1v-0.2c1.2-0.1,1.4-0.4,1.4-1.3v-6c0-0.4-0.6-0.3-1-0.3c-1.2,0-1.9,0.1-1.9,1.6
			h-0.2v-2h7.8V38.7z"/>
		<path fill="#057DC2" d="M145.1,39.3c0-0.4,0-1.3-0.1-1.7c-0.2-0.4-0.7-0.4-1.1-0.4v-0.3h6.3v1.9h-0.3c-0.2-1.5-0.9-1.6-2.2-1.6
			h-0.9c-0.2,0-0.2,0-0.3,0.1c0,0.1,0,0.2,0,0.4v3c1.8,0.1,2-0.7,2.1-1.6h0.3c0,0.6,0,1.2-0.1,1.7c0,0.5,0.1,1,0.1,1.6h-0.3
			c-0.2-1.3-0.9-1.3-2.1-1.3V43c0,0.4,0,1,0.2,1.3c0.3,0.4,1.1,0.4,1.6,0.4c1.3,0,2.1-0.2,2.3-1.7h0.3l-0.1,2h-6.9v-0.2
			c0.4,0,0.9,0,1.1-0.4c0.1-0.3,0.1-1.3,0.1-1.7L145.1,39.3L145.1,39.3z"/>
		<path fill="#057DC2" d="M153.7,39.2c0-0.4,0-1.3-0.1-1.7c-0.1-0.4-0.7-0.4-1-0.4v-0.3c0.5,0,1,0.1,1.6,0.1c0.7,0,1.3-0.1,2-0.1
			c2.7-0.1,4.7,1.6,4.7,4.3s-1.8,4.1-4.3,4c-0.7,0-1.5-0.1-2.3-0.1c-0.6,0-1.2,0.1-1.7,0.1v-0.2c0.4,0,0.9,0,1-0.4
			c0.1-0.3,0.1-1.3,0.1-1.7V39.2L153.7,39.2L153.7,39.2z M155,42.9c0,0.4-0.1,1,0.2,1.4c0.2,0.4,0.9,0.4,1.4,0.4
			c2.2,0,2.7-1.6,2.7-3.4c0-2.4-0.7-4.2-3.4-4.2c-0.1,0-0.7,0-0.8,0.1c-0.1,0.1-0.1,0.3-0.1,0.4L155,42.9L155,42.9z"/>
		<path fill="#057DC2" d="M167.9,37.9c-0.4-0.6-0.7-0.7-1.3-0.8v-0.2c0.4,0,0.8,0.1,1.2,0.1c0.3,0,0.7-0.1,1-0.1l5.3,6.5l0,0v-3.5
			c0-0.5,0-1.4-0.1-2c-0.1-0.7-0.5-0.7-1.1-0.8v-0.2c0.4,0,0.9,0.1,1.3,0.1s0.9-0.1,1.3-0.1v0.2c-0.4,0.1-0.8,0-1,0.6
			c-0.1,0.4-0.1,1.7-0.1,2.2v5.4H174c-0.2-0.3-0.6-0.7-0.9-1l-4.9-6l0,0v4.2c0,0.4,0,1.4,0.2,1.8c0.2,0.5,0.7,0.4,1.1,0.5v0.2
			c-0.4,0-1-0.1-1.4-0.1s-0.9,0.1-1.4,0.1v-0.2c0.5-0.1,1-0.1,1.1-0.7c0.1-0.4,0.1-1.2,0.1-1.8V37.9L167.9,37.9z"/>
		<path fill="#057DC2" d="M178.3,42.4c-0.2,0.4-0.6,1.4-0.6,1.9c0,0.5,0.7,0.5,1,0.5v0.3c-0.4,0-0.9-0.1-1.3-0.1s-0.9,0.1-1.3,0.1
			v-0.2c0.7-0.1,1-0.2,1.2-0.9c0.3-0.8,0.7-1.6,1-2.4l2-4.9h0.4l2.5,6.4c0.1,0.3,0.4,1.1,0.7,1.3c0.2,0.4,0.7,0.4,1.1,0.4v0.2
			c-0.6,0-1.2-0.1-1.8-0.1c-0.6,0-1.2,0.1-1.8,0.1v-0.2c0.3,0,1,0,1-0.4c0-0.3-0.1-0.7-0.2-1l-0.5-1.3h-3.1L178.3,42.4z M181.4,41.6
			l-1.3-3.5l-1.4,3.5H181.4z"/>
		<path fill="#057DC2" d="M192.6,38.7h-0.3c-0.1-1.2-0.6-1.6-1.8-1.6c-0.4,0-1.2-0.1-1.2,0.3v6c0,0.9,0.2,1.3,1.4,1.3V45
			c-0.7,0-1.4-0.1-2.1-0.1c-0.7,0-1.3,0.1-2,0.1v-0.2c1.2-0.1,1.4-0.4,1.4-1.3v-6c0-0.4-0.6-0.3-1-0.3c-1.2,0-1.9,0.1-1.9,1.6h-0.2
			v-2h7.8V38.7z"/>
		<path fill="#057DC2" d="M195.2,39.2c0-0.4,0-1.3-0.1-1.7c-0.2-0.4-0.7-0.4-1.1-0.4v-0.2c0.6,0,1.2,0.1,1.8,0.1
			c0.7,0,1.3-0.1,1.9-0.1v0.2c-0.4,0-0.9,0-1.1,0.4c-0.1,0.3-0.1,1.3-0.1,1.7v3.5c0,0.4,0,1.3,0.1,1.7c0.2,0.4,0.7,0.4,1.1,0.4v0.2
			c-0.6,0-1.2-0.1-1.8-0.1c-0.7,0-1.3,0.1-1.9,0.1v-0.2c0.4,0,0.9,0,1.1-0.4c0.1-0.3,0.1-1.3,0.1-1.7V39.2z"/>
		<path fill="#057DC2" d="M199.2,41c0-2.5,2.2-4.3,4.6-4.3s4.5,1.8,4.5,4.3c0,2.6-2,4.3-4.6,4.3C201.3,45.3,199.2,43.5,199.2,41
			 M200.8,41c0,2,0.8,4,3.1,4c2.3,0,2.9-2.1,2.9-4c0-1.9-0.8-4-3-4C201.6,37,200.8,39.1,200.8,41"/>
		<path fill="#057DC2" d="M211,37.9c-0.4-0.6-0.7-0.7-1.3-0.8v-0.2c0.4,0,0.8,0.1,1.2,0.1c0.3,0,0.7-0.1,1-0.1l5.3,6.5l0,0v-3.5
			c0-0.5,0-1.4-0.1-2c-0.1-0.7-0.5-0.7-1.1-0.8v-0.2c0.4,0,0.9,0.1,1.3,0.1s0.9-0.1,1.3-0.1v0.2c-0.4,0.1-0.8,0-1,0.6
			c-0.1,0.4-0.1,1.7-0.1,2.2v5.4h-0.4c-0.2-0.3-0.6-0.7-0.9-1l-4.9-6l0,0v4.2c0,0.4,0,1.4,0.2,1.8c0.2,0.5,0.7,0.4,1.1,0.5v0.2
			c-0.4,0-1-0.1-1.4-0.1c-0.4,0-0.9,0.1-1.4,0.1v-0.2c0.5-0.1,1-0.1,1.1-0.7c0.1-0.4,0.1-1.2,0.1-1.8V37.9z"/>
		<path fill="#057DC2" d="M220.3,42.5h0.2c0.2,1.3,0.9,2.3,2.4,2.3c1,0,1.8-0.6,1.8-1.6c0-1.2-1-1.6-1.9-2c-1.2-0.4-2.4-1-2.4-2.4
			s1.1-2.3,2.4-2.3c0.7,0,1.3,0.2,1.9,0.7l0.2-0.5h0.1l0.1,2.2H225c-0.2-1-0.9-2-2.1-2c-0.8,0-1.5,0.5-1.5,1.3c0,1,0.9,1.3,1.7,1.7
			c1.3,0.5,2.8,1.2,2.8,2.9c0,1.6-1.6,2.4-3,2.4c-0.9,0-1.6-0.2-2.2-0.8l-0.3,0.5h-0.1L220.3,42.5L220.3,42.5z"/>
		<path fill="#057DC2" d="M143.1,53.2c0-2.5,2.2-4.3,4.6-4.3s4.5,1.8,4.5,4.3c0,2.6-2,4.3-4.6,4.3C145.2,57.4,143.1,55.7,143.1,53.2
			 M144.7,53.2c0,2,0.8,4,3.1,4s2.9-2.1,2.9-4c0-1.9-0.8-4-3-4C145.5,49.1,144.7,51.3,144.7,53.2"/>
		<path fill="#057DC2" d="M161.2,53.9c0,2.3-0.9,3.5-3.3,3.5c-2.3,0-3.4-0.8-3.4-3.1v-3c0-0.4,0-1.3-0.1-1.7
			c-0.2-0.4-0.7-0.4-1.1-0.4V49c0.6,0,1.2,0.1,1.8,0.1s1.3-0.1,1.9-0.1v0.2c-0.4,0-0.9,0-1.1,0.4c-0.1,0.3-0.1,1.3-0.1,1.7v3.1
			c0,1.6,0.7,2.5,2.3,2.5c1.8,0,2.6-0.9,2.6-2.6v-2.9c0-0.4,0-1.4-0.1-1.8c-0.2-0.5-0.7-0.6-1.2-0.6v-0.2c0.5,0,1,0.1,1.5,0.1
			c0.4,0,0.9-0.1,1.4-0.1V49c-0.4,0-0.9,0-1,0.4c-0.2,0.4-0.2,1.4-0.2,2v2.3h0.1V53.9z"/>
		<path fill="#057DC2" d="M165,49.9c-0.4-0.5-0.7-0.7-1.3-0.8v-0.2c0.4,0,0.8,0.1,1.2,0.1c0.3,0,0.7-0.1,1-0.1l5.3,6.5l0,0v-3.5
			c0-0.5,0-1.4-0.1-2c-0.1-0.7-0.5-0.7-1.1-0.8v-0.2c0.4,0,0.9,0.1,1.3,0.1s0.9-0.1,1.3-0.1v0.2c-0.4,0.1-0.8,0-1,0.6
			c-0.1,0.4-0.1,1.7-0.1,2.2v5.4h-0.4c-0.2-0.3-0.6-0.7-0.9-1l-4.9-6l0,0v4.2c0,0.4,0,1.4,0.2,1.8c0.2,0.5,0.7,0.4,1.1,0.5v0.2
			c-0.4,0-1-0.1-1.4-0.1c-0.4,0-0.9,0.1-1.4,0.1V57c0.5-0.1,1-0.1,1.1-0.7c0.1-0.4,0.1-1.2,0.1-1.8V49.9L165,49.9z"/>
		<path fill="#057DC2" d="M175.7,51.3c0-0.4,0-1.3-0.1-1.7c-0.1-0.4-0.7-0.4-1-0.4v-0.3c0.5,0,1,0.1,1.6,0.1c0.7,0,1.3-0.1,2.1-0.1
			c2.7-0.1,4.7,1.6,4.7,4.3c0,2.7-1.8,4.1-4.3,4c-0.7,0-1.5-0.1-2.3-0.1c-0.6,0-1.2,0.1-1.7,0.1V57c0.4,0,0.9,0,1-0.4
			c0.1-0.3,0.1-1.3,0.1-1.7L175.7,51.3L175.7,51.3z M177,55c0,0.4-0.1,1,0.2,1.4c0.2,0.4,0.9,0.4,1.4,0.4c2.2,0,2.7-1.6,2.7-3.4
			c0-2.4-0.7-4.2-3.4-4.2c-0.1,0-0.7,0-0.8,0.1c-0.1,0.1-0.1,0.3-0.1,0.4L177,55L177,55z"/>
		<path fill="#057DC2" d="M185.5,54.5c-0.2,0.4-0.6,1.4-0.6,1.9c0,0.5,0.7,0.5,1,0.5v0.2c-0.4,0-0.9-0.1-1.3-0.1s-0.9,0.1-1.3,0.1
			V57c0.7-0.1,1-0.2,1.2-0.9c0.3-0.8,0.7-1.6,1-2.4l2-4.9h0.4l2.5,6.4c0.1,0.3,0.4,1.1,0.7,1.3c0.2,0.4,0.7,0.4,1.1,0.4v0.2
			c-0.6,0-1.2-0.1-1.8-0.1c-0.6,0-1.2,0.1-1.8,0.1v-0.2c0.3,0,1,0,1-0.4c0-0.3-0.1-0.7-0.2-1l-0.5-1.3h-3.1L185.5,54.5z M188.6,53.8
			l-1.3-3.5l-1.4,3.5H188.6z"/>
		<path fill="#057DC2" d="M199.9,50.8h-0.3c-0.1-1.2-0.6-1.6-1.8-1.6c-0.4,0-1.2-0.1-1.2,0.3v6c0,0.9,0.2,1.3,1.4,1.3v0.2
			c-0.7,0-1.4-0.1-2.1-0.1s-1.3,0.1-2,0.1v-0.2c1.2-0.1,1.4-0.4,1.4-1.3v-6c0-0.4-0.6-0.3-1-0.3c-1.2,0-1.9,0.1-1.9,1.6h-0.2v-2h7.8
			V50.8z"/>
		<path fill="#057DC2" d="M202.6,51.3c0-0.4,0-1.3-0.1-1.7c-0.2-0.4-0.7-0.4-1.1-0.4V49c0.6,0,1.2,0.1,1.8,0.1
			c0.7,0,1.3-0.1,1.9-0.1v0.2c-0.4,0-0.9,0-1.1,0.4c-0.1,0.3-0.1,1.3-0.1,1.7v3.5c0,0.4,0,1.3,0.1,1.7c0.2,0.4,0.7,0.4,1.1,0.4v0.2
			c-0.6,0-1.2-0.1-1.8-0.1c-0.7,0-1.3,0.1-1.9,0.1V57c0.4,0,0.9,0,1.1-0.4c0.1-0.3,0.1-1.3,0.1-1.7V51.3z"/>
		<path fill="#057DC2" d="M206.8,53.2c0-2.5,2.2-4.3,4.6-4.3c2.4,0,4.5,1.8,4.5,4.3c0,2.6-2,4.3-4.6,4.3
			C209,57.4,206.8,55.7,206.8,53.2 M208.4,53.2c0,2,0.8,4,3.1,4c2.3,0,2.9-2.1,2.9-4c0-1.9-0.8-4-3-4
			C209.2,49.1,208.4,51.3,208.4,53.2"/>
		<path fill="#057DC2" d="M218.5,49.9c-0.4-0.5-0.7-0.7-1.3-0.8v-0.2c0.4,0,0.8,0.1,1.2,0.1c0.3,0,0.7-0.1,1-0.1l5.3,6.5l0,0v-3.5
			c0-0.5,0-1.4-0.1-2c-0.1-0.7-0.5-0.7-1.1-0.8v-0.2c0.4,0,0.9,0.1,1.3,0.1s0.9-0.1,1.3-0.1v0.2c-0.4,0.1-0.8,0-1,0.6
			c-0.1,0.4-0.1,1.7-0.1,2.2v5.4h-0.4c-0.2-0.3-0.6-0.7-0.9-1l-4.9-6l0,0v4.2c0,0.4,0,1.4,0.2,1.8c0.2,0.5,0.7,0.4,1.1,0.5v0.2
			c-0.4,0-1-0.1-1.4-0.1s-0.9,0.1-1.4,0.1V57c0.5-0.1,1-0.1,1.1-0.7c0.1-0.4,0.1-1.2,0.1-1.8V49.9z"/>
	</g>
	<g>
		<g>
			<path fill="#29ABE2" d="M7.1,68.6c1.2,0.5,2.8,0.9,4.2,0.9c4.5,0,7.2-2,7.2-7.8v-7.2c0-3.9-2.7-7.4-6.7-7.4
				c-3.3,0-6.7,3.1-6.7,7.4s3.3,7.4,6.7,7.4c2.2,0,3.7-0.9,5.2-2.4V61c-1,0.9-2.6,2.1-5.2,2.1c-4.5,0-8-3.6-8-8.6s3.5-8.6,8-8.6
				s8,3.6,8,8.6v8c0.1,5.2-3.5,8.2-8.3,8.2c-1.6,0-3.2-0.3-4.8-0.9L7.1,68.6z"/>
			<rect x="22.5" y="46.1" fill="#29ABE2" width="1.3" height="16.6"/>
			<rect x="36.5" y="38.2" fill="#29ABE2" width="1.3" height="24.4"/>
			<path fill="#29ABE2" d="M34.7,47.2c-0.4-0.1-0.9-0.2-1.3-0.2c-2.9,0-5.3,2.3-5.3,5.7v10h-1.3V52.6c0-4.1,3-6.8,6.6-6.8
				c0.4,0,0.9,0,1.3,0.1L34.7,47.2L34.7,47.2z"/>
			<path fill="#E90E8B" d="M42.7,38.2v10c0,3.5,2.4,5.7,5.3,5.7c2.9,0,5.3-2.3,5.3-5.7v-10h1.3v10.1c0,4.1-3,6.8-6.6,6.8
				c-3.7,0-6.6-2.7-6.6-6.8V38.2H42.7z"/>
			<path fill="#E90E8B" d="M56.7,62.7V46.5c0-5,3.5-8.6,8-8.6c4.5,0,8,3.6,8,8.6s-3.5,8.6-8,8.6c-2.6,0-4.2-1.2-5.2-2.1v-1.6
				c1.4,1.5,3,2.4,5.2,2.4c3.3,0,6.7-3.1,6.7-7.4s-3.3-7.4-6.7-7.4c-4,0-6.7,3.5-6.7,7.4v16.2H56.7L56.7,62.7L56.7,62.7z"/>
			<path fill="#E90E8B" d="M51.9,9.1c-1.1,0-3,3.8-0.1,12.8c0,0,0,0.1,0,0.1s-0.2-0.2-0.2-0.2c-3-7-1.8-9.3-2-9.4h0
				c-0.5,0-2,3.2,0.5,11.1c0,0.2,0,0.2,0,0.2c0,0-0.2-0.2-0.2-0.3c-2.3-5-1.5-7-1.7-7l0,0c-0.3,0-1.7,2.5,0.2,8.6
				c0.9,2.9,2.5,9.3,8.6,10.3c0.2,0,0.4,0,0.6,0h0c3.4,0,6.8-4,7.2-4.5c0.9-1.1,2-2.6,3.8-2.6c0.4,0,0.9,0.1,1.3,0.3
				c0,0-0.1-0.1-0.3-0.2c-0.2-0.1-0.6-0.2-1.2-0.2c-0.8,0-2,0.2-3.6,1.2c-0.6,0.3-1.2,0.7-1.8,1.1c-0.9,0.5-1.7,0.8-2.5,0.8
				c-1,0-1.8-0.4-2.7-1.3c-1-1.1-1.7-2.6-2.2-4.2c-0.8-2.5-0.5-5.2,0.1-7.7c-1.6-4.3-1.4-6.7-1.5-6.7h0c-0.3,0-1.6,0.9-0.5,6
				c0.4,2,1.2,3.7,1.2,3.7l0,0c0,0-0.1-0.2-0.1-0.2c-3.9-7.9-2.4-11.5-2.6-11.6C52,9.1,51.9,9.1,51.9,9.1 M70,28.6L70,28.6L70,28.6
				L70,28.6"/>
			<path fill="#29ABE2" d="M65.5,6.8c-1,0-3.6,2-5.7,9.9c0,0,0,0,0,0c0,0-0.1-0.2-0.1-0.2c1.2-6.9,3.2-8.6,3.1-8.6c0,0,0,0-0.1,0
				c-0.6,0-3,1.5-4.8,8.5c0,0.2-0.1,0.2-0.1,0.2c0,0,0-0.2,0-0.4c0.7-5,2.3-6.4,2.2-6.5h0c-0.4,0-2.4,1.1-4,7.4
				c-0.1,0.2-0.1,0.5-0.2,0.8c0.7,2,1.8,4.3,3.5,7.1c0.5,0.8,1.6,2.5,2.9,2.5c0.1,0,0.3,0,0.4-0.1c0.5-0.2,1-0.5,1.5-0.7
				c0.7-0.2,1.4-0.5,2.2-0.5c0.1,0,0.2,0,0.3,0c0.9,0,2,0.2,2.8,0.8c0.3,0.2,0.6,0.8,0.6,1.2v0.1c0,0.1,0,0.2,0,0.2
				c0.3-0.3,0.4-0.9,0.2-1.3c-0.4-0.9-1.3-1.4-2-1.6c-0.5-0.1-1-0.2-1.5-0.2c-0.2,0-0.3,0-0.5,0c-0.5,0-1,0.1-1.5,0.2
				c-0.1,0-0.2,0-0.2,0c-0.4,0-0.6-0.2-0.8-0.5c-0.3-0.6-0.3-1.7-0.3-2.6c0.3-9.2,3.1-13.2,3-13.3c0,0,0,0-0.1,0
				c-0.4,0-1.7,0.7-3.3,5c-0.7,1.8-1,3.5-1,3.5h0c0,0,0-0.2,0-0.2c1-7.9,3.9-10.6,3.8-10.7C65.8,6.9,65.6,6.8,65.5,6.8 M70,28.6
				L70,28.6L70,28.6L70,28.6"/>
			<path fill="#792D8E" d="M55.8,17.9c-0.6,2.5-0.9,5.3-0.1,7.7c0.5,1.6,1.2,3.1,2.2,4.2c0.8,0.9,1.7,1.3,2.7,1.3
				c0.9,0,1.7-0.3,2.5-0.8c0.6-0.3,1.2-0.7,1.8-1.1c1.6-1,2.8-1.2,3.6-1.2c0.5,0,1,0.1,1.2,0.2c0.2,0.1,0.3,0.2,0.3,0.2l0,0l0,0
				c0-0.1,0-0.1,0-0.2v-0.1c0-0.4-0.2-1-0.6-1.3c-0.9-0.6-2-0.8-2.8-0.8c-0.1,0-0.2,0-0.3,0c-0.8,0-1.5,0.2-2.2,0.5
				c-0.5,0.2-1,0.5-1.5,0.7c-0.1,0-0.3,0.1-0.4,0.1c-1.3,0-2.4-1.7-2.9-2.5C57.6,22.2,56.5,19.9,55.8,17.9"/>
			<path fill="#2DABE2" d="M70,28.6L70,28.6L70,28.6"/>
			<polygon fill="#E90E8B" points="73.1,36.6 72.5,36.6 72.5,36.4 74,36.4 74,36.6 73.3,36.6 73.3,38.2 73.1,38.2 			"/>
			<polygon fill="#E90E8B" points="74.2,36.4 74.5,36.4 75.1,38 75.7,36.4 76,36.4 76,38.2 75.8,38.2 75.8,36.7 75.8,36.7 
				75.2,38.2 75,38.2 74.4,36.7 74.4,36.7 74.4,38.2 74.2,38.2 			"/>
		</g>
	</g>
	<rect x="86.1" y="29.9" fill="#ECECEC" width="1.8" height="29.2"/>
</g>
</svg>
